# xmcd CD database file
#
# Track frame offsets:
#	150
#	22977
#	38785
#	66912
#	87157
#	109660
#	137110
#	154807
#	176785
#	196957
#
# Disc length: 2781 seconds
#
# Revision: 1
# Processed by: cddbd v1.5.2PL0 Copyright (c) Steve Scherf et al.
# Submitted via: CDex 1.70beta2
#
DISCID=820adb0a
DTITLE=Blindman - Sensitive Pictures
DYEAR=1998
DGENRE=J-Metal
TTITLE0=When The Fool Moon Rises
TTITLE1=Raise Your Faith
TTITLE2=Broken Dreams
TTITLE3=Standin' On The Edge
TTITLE4=Why Did You Come Back?
TTITLE5=Heads Or Tails
TTITLE6=The Break Of Light
TTITLE7=Gaze Into Your Eyes
TTITLE8=The Man In The Mirror
TTITLE9=My Time Goes By
EXTD=YEAR: 1998
EXTT0=
EXTT1=
EXTT2=
EXTT3=
EXTT4=
EXTT5=
EXTT6=
EXTT7=
EXTT8=
EXTT9=
PLAYORDER=
